# xmcd CD database file
#
# Track frame offsets:
#	183
#	21493
#	38293
#	57868
#	74295
#	94468
#	113145
#	130095
#	155370
#	178168
#
# Disc length: 2843 seconds
#
# Revision: 2
# Processed by: cddbd v1.4b41PL1 Copyright (c) Steve Scherf et al.
# Submitted via: Feurio! 1.60 - http://www.feurio.com
#
DISCID=820b190a,840b190a
DTITLE=Wolfgang Ambros - Gewitter
DYEAR=1900
DGENRE=
TTITLE0=Gewitter
TTITLE1=Zeitung
TTITLE2=Wir Die Denken
TTITLE3=Mein Seltsamer Beruf
TTITLE4=Die Wegwerfgesellsschaft
TTITLE5=V.I.P
TTITLE6=Ein Tag Zum Verzweifeln
TTITLE7=Gut Und schön
TTITLE8=Niemals Ergeben
TTITLE9=Winter
EXTD=
EXTT0=
EXTT1=
EXTT2=
EXTT3=
EXTT4=
EXTT5=
EXTT6=
EXTT7=
EXTT8=
EXTT9=
PLAYORDER=
